<svg width="84" height="52" viewBox="0 0 84 52" fill="none" xmlns="http://www.w3.org/2000/svg">
<path opacity="0.75" d="M0.5 30.6397C7.19073 30.6397 12.6222 25.2054 12.6222 18.5112C12.6222 11.8169 7.19073 6.38257 0.5 6.38257V12.2306V30.6397Z" fill="#F44336"/>
<path opacity="0.75" d="M6.55127 30.6395C13.242 30.6395 18.6735 25.2051 18.6735 18.5109C18.6735 11.8167 13.242 6.38232 6.55127 6.38232V12.2304V30.6395Z" fill="#FFA000"/>
<path d="M24.1962 11.5675C23.8692 11.8945 23.4786 12.058 23.0244 12.058C22.5702 12.058 22.1796 11.8945 21.8526 11.5675C21.5437 11.2405 21.3893 10.8499 21.3893 10.3957C21.3893 9.95969 21.5437 9.58726 21.8526 9.27841C22.1796 8.95139 22.5702 8.78789 23.0244 8.78789C23.4786 8.78789 23.8692 8.95139 24.1962 9.27841C24.5232 9.58726 24.6867 9.95969 24.6867 10.3957C24.6867 10.8499 24.5232 11.2405 24.1962 11.5675ZM21.6346 28V14.5106H24.4414V28H21.6346Z" fill="#F77268"/>
<path d="M35.3117 28.1908C33.2769 28.1908 31.6237 27.4913 30.352 26.0924V28H27.4906V7.56158H30.352V16.4455C31.5874 15.0284 33.2406 14.3199 35.3117 14.3199C37.1466 14.3199 38.6727 14.983 39.8899 16.3092C41.1253 17.6355 41.743 19.2887 41.743 21.2689C41.743 23.231 41.1253 24.8752 39.8899 26.2014C38.6727 27.5276 37.1466 28.1908 35.3117 28.1908ZM34.6304 25.7109C35.8295 25.7109 36.8378 25.284 37.6553 24.4301C38.4728 23.5762 38.8816 22.5225 38.8816 21.2689C38.8816 19.9972 38.4728 18.9344 37.6553 18.0806C36.8559 17.2267 35.8476 16.7997 34.6304 16.7997C33.4132 16.7997 32.3958 17.2267 31.5783 18.0806C30.7607 18.9344 30.352 19.9972 30.352 21.2689C30.352 22.5043 30.7607 23.5581 31.5783 24.4301C32.3958 25.284 33.4132 25.7109 34.6304 25.7109ZM48.1566 28.0545C46.9212 28.0545 45.9402 27.6912 45.2135 26.9645C44.4868 26.2196 44.1234 25.1931 44.1234 23.8851V7.56158H46.9848V23.3673C46.9848 24.0395 47.1574 24.5482 47.5026 24.8934C47.8659 25.2385 48.3292 25.4111 48.8924 25.4111C49.1467 25.4111 49.4374 25.3657 49.7644 25.2749L50.0642 27.782C49.3012 27.9637 48.6653 28.0545 48.1566 28.0545ZM63.2904 26.2832C61.8915 27.6639 60.2019 28.3543 58.2217 28.3543C56.2414 28.3543 54.5518 27.6639 53.1529 26.2832C51.754 24.8843 51.0546 23.2038 51.0546 21.2417C51.0546 19.2614 51.754 17.5809 53.1529 16.2002C54.5518 14.8013 56.2414 14.1019 58.2217 14.1019C60.2201 14.1019 61.9187 14.8013 63.3176 16.2002C64.7165 17.5809 65.416 19.2614 65.416 21.2417C65.416 23.2038 64.7075 24.8843 63.2904 26.2832ZM58.2217 25.6564C59.4026 25.6746 60.4018 25.2567 61.2193 24.4028C62.0368 23.549 62.4456 22.5043 62.4456 21.2689C62.4456 20.0154 62.0368 18.9617 61.2193 18.1078C60.4018 17.2539 59.4026 16.8361 58.2217 16.8542C57.0408 16.8361 56.0416 17.2539 55.224 18.1078C54.4247 18.9617 54.025 20.0154 54.025 21.2689C54.025 22.5043 54.4247 23.549 55.224 24.4028C56.0416 25.2567 57.0408 25.6746 58.2217 25.6564ZM73.9927 34.8128C72.5756 34.831 71.2766 34.5403 70.0957 33.9408C68.933 33.3412 68.0065 32.5419 67.3161 31.5427L69.3872 29.7441C70.5318 31.3246 72.076 32.1149 74.0199 32.1149C75.2371 32.1149 76.2999 31.7062 77.2083 30.8886C78.1167 30.0711 78.5709 28.9175 78.5709 27.4277V26.0924C77.4627 27.4913 75.8367 28.1908 73.6929 28.1908C71.8217 28.1908 70.2593 27.5276 69.0057 26.2014C67.7703 24.8752 67.1526 23.231 67.1526 21.2689C67.1526 19.2887 67.7703 17.6355 69.0057 16.3092C70.2593 14.983 71.8217 14.3199 73.6929 14.3199C75.7458 14.3199 77.3718 15.0193 78.5709 16.4182V14.5106H81.4323V27.2642C81.4323 29.6805 80.7146 31.5336 79.2794 32.8235C77.8442 34.1315 76.0819 34.7946 73.9927 34.8128ZM74.2652 25.7109C75.4824 25.7109 76.4998 25.284 77.3173 24.4301C78.153 23.5581 78.5709 22.5043 78.5709 21.2689C78.5709 19.9972 78.153 18.9344 77.3173 18.0806C76.4998 17.2267 75.4824 16.7997 74.2652 16.7997C73.0661 16.7997 72.0578 17.2267 71.2403 18.0806C70.4409 18.9344 70.0412 19.9972 70.0412 21.2689C70.0412 22.5225 70.4409 23.5762 71.2403 24.4301C72.0578 25.284 73.0661 25.7109 74.2652 25.7109Z" fill="#FC9419"/>
<path d="M3.34654 46.3289L1.34205 39.348H2.51881L4.0147 44.8529L5.71005 39.348H6.75717L8.46248 44.8529L9.9484 39.348H11.1351L9.13065 46.3289H7.86413L6.23859 41.193L4.60309 46.3289H3.34654ZM11.7047 46.3289V41.3924H12.7519V42.0606C13.1308 41.5487 13.7658 41.2993 14.6566 41.3126V42.4196C14.4705 42.3465 14.2544 42.3099 14.0084 42.3099C13.6627 42.3099 13.3668 42.4462 13.1209 42.7188C12.8749 42.9847 12.7519 43.3537 12.7519 43.8257V46.3289H11.7047ZM16.3717 40.3154C16.252 40.435 16.1091 40.4949 15.9429 40.4949C15.7767 40.4949 15.6337 40.435 15.514 40.3154C15.401 40.1957 15.3445 40.0528 15.3445 39.8866C15.3445 39.727 15.401 39.5907 15.514 39.4777C15.6337 39.358 15.7767 39.2982 15.9429 39.2982C16.1091 39.2982 16.252 39.358 16.3717 39.4777C16.4914 39.5907 16.5512 39.727 16.5512 39.8866C16.5512 40.0528 16.4914 40.1957 16.3717 40.3154ZM15.4343 46.3289V41.3924H16.4614V46.3289H15.4343ZM20.0004 46.3488C19.4951 46.3488 19.0862 46.2092 18.7738 45.93C18.4679 45.6441 18.315 45.2551 18.315 44.7632V42.3099H17.1881V41.3924H18.315V39.9564H19.3522V41.3924H20.7483V42.3099H19.3522V44.5438C19.3522 45.1089 19.6447 45.3914 20.2298 45.3914C20.4159 45.3914 20.5954 45.3615 20.7683 45.3017L20.888 46.2092C20.5688 46.3023 20.273 46.3488 20.0004 46.3488ZM23.991 41.2528C24.7157 41.2528 25.3107 41.4822 25.7761 41.9409C26.2415 42.3997 26.4808 43.0113 26.4941 43.7759C26.4941 43.9288 26.4908 44.0485 26.4841 44.1349H22.3754C22.4286 44.5803 22.6048 44.936 22.904 45.202C23.2098 45.4612 23.5721 45.5909 23.991 45.5909C24.6226 45.5909 25.1112 45.3682 25.457 44.9227L26.0952 45.4612C25.8692 45.7737 25.5667 46.0164 25.1877 46.1892C24.8154 46.3621 24.4165 46.4485 23.991 46.4485C23.2597 46.4485 22.6447 46.1992 22.1461 45.7006C21.6541 45.202 21.4081 44.5903 21.4081 43.8656C21.4081 43.1277 21.6541 42.5094 22.1461 42.0107C22.638 41.5054 23.253 41.2528 23.991 41.2528ZM23.991 42.0706C23.5788 42.0706 23.2264 42.1969 22.9339 42.4495C22.648 42.6955 22.4685 43.0279 22.3954 43.4468H25.5567C25.4703 43.0146 25.2874 42.6789 25.0082 42.4395C24.7356 42.1936 24.3965 42.0706 23.991 42.0706ZM26.6905 47.9145L27.1592 45.7804H28.1365L27.6079 47.9145H26.6905ZM36.7337 46.3289H35.527L34.1807 43.6861H32.5253V46.3289H31.4383V39.348H34.3104C34.9553 39.348 35.5004 39.5442 35.9459 39.9364C36.3913 40.3287 36.614 40.8572 36.614 41.5221C36.614 42.0207 36.4844 42.4429 36.2251 42.7886C35.9725 43.1343 35.6367 43.3836 35.2179 43.5365L36.7337 46.3289ZM32.5253 40.3154V42.7387H34.2007C34.5929 42.7387 34.9087 42.629 35.1481 42.4096C35.3874 42.1902 35.5071 41.8977 35.5071 41.532C35.5071 41.1664 35.3874 40.8738 35.1481 40.6544C34.9087 40.4284 34.5929 40.3154 34.2007 40.3154H32.5253ZM39.6414 41.2528C40.366 41.2528 40.9611 41.4822 41.4265 41.9409C41.8918 42.3997 42.1312 43.0113 42.1445 43.7759C42.1445 43.9288 42.1412 44.0485 42.1345 44.1349H38.0258C38.079 44.5803 38.2552 44.936 38.5543 45.202C38.8602 45.4612 39.2225 45.5909 39.6414 45.5909C40.273 45.5909 40.7616 45.3682 41.1073 44.9227L41.7456 45.4612C41.5195 45.7737 41.217 46.0164 40.8381 46.1892C40.4658 46.3621 40.0669 46.4485 39.6414 46.4485C38.91 46.4485 38.2951 46.1992 37.7964 45.7006C37.3044 45.202 37.0585 44.5903 37.0585 43.8656C37.0585 43.1277 37.3044 42.5094 37.7964 42.0107C38.2884 41.5054 38.9034 41.2528 39.6414 41.2528ZM39.6414 42.0706C39.2292 42.0706 38.8768 42.1969 38.5843 42.4495C38.2984 42.6955 38.1189 43.0279 38.0457 43.4468H41.2071C41.1206 43.0146 40.9378 42.6789 40.6586 42.4395C40.386 42.1936 40.0469 42.0706 39.6414 42.0706ZM45.0411 46.3987C44.3762 46.3987 43.8177 46.156 43.3657 45.6707C42.9136 45.1787 42.6875 44.577 42.6875 43.8656C42.6875 43.1409 42.9102 42.5359 43.3557 42.0506C43.8078 41.5653 44.3696 41.3226 45.0411 41.3226C45.8056 41.3226 46.4106 41.5786 46.8561 42.0905V41.3924H47.9032V46.3289H46.8561V45.6308C46.404 46.1427 45.799 46.3987 45.0411 46.3987ZM44.1734 45.0224C44.4726 45.3349 44.8449 45.4912 45.2904 45.4912C45.7358 45.4912 46.1081 45.3349 46.4073 45.0224C46.7065 44.7033 46.8561 44.3177 46.8561 43.8656C46.8561 43.4002 46.7065 43.0113 46.4073 42.6988C46.1081 42.3864 45.7358 42.2301 45.2904 42.2301C44.8449 42.2301 44.4726 42.3864 44.1734 42.6988C43.8743 43.0113 43.7247 43.4002 43.7247 43.8656C43.7247 44.3177 43.8743 44.7033 44.1734 45.0224ZM51.1278 46.3987C50.463 46.3987 49.9045 46.156 49.4524 45.6707C49.0004 45.1787 48.7743 44.577 48.7743 43.8656C48.7743 43.1409 48.997 42.5359 49.4425 42.0506C49.8946 41.5653 50.4564 41.3226 51.1278 41.3226C51.9057 41.3226 52.5107 41.5819 52.9429 42.1005V38.8494H53.99V46.3289H52.9429V45.6308C52.4974 46.1427 51.8924 46.3987 51.1278 46.3987ZM51.3772 45.4912C51.8226 45.4912 52.1949 45.3349 52.4941 45.0224C52.7933 44.7033 52.9429 44.3177 52.9429 43.8656C52.9429 43.4002 52.7933 43.0113 52.4941 42.6988C52.1949 42.3864 51.8226 42.2301 51.3772 42.2301C50.9317 42.2301 50.5594 42.3864 50.2602 42.6988C49.9677 43.0113 49.8214 43.4002 49.8214 43.8656C49.8214 44.3244 49.971 44.71 50.2702 45.0224C50.5694 45.3349 50.9384 45.4912 51.3772 45.4912ZM54.6118 47.9145L55.0805 45.7804H56.0578L55.5293 47.9145H54.6118ZM59.3596 46.3289V39.348H64.1165V40.3254H60.4566V42.3498H64.0368V43.3072H60.4566V45.3515H64.1165V46.3289H59.3596ZM65.103 46.3289V41.3924H66.1501V42.0307C66.5423 41.5586 67.0576 41.3226 67.6958 41.3226C68.3474 41.3226 68.8693 41.5354 69.2615 41.9609C69.6604 42.3797 69.8599 42.9847 69.8599 43.7759V46.3289H68.8128V43.8656C68.8128 43.3205 68.6931 42.9116 68.4538 42.639C68.2144 42.3664 67.9019 42.2301 67.5163 42.2301C67.1041 42.2301 66.7717 42.3797 66.5191 42.6789C66.2731 42.9714 66.1501 43.3803 66.1501 43.9055V46.3289H65.103ZM71.8628 40.3154C71.7498 40.4284 71.6102 40.4849 71.444 40.4849C71.2778 40.4849 71.1348 40.4284 71.0152 40.3154C70.9021 40.1957 70.8456 40.0528 70.8456 39.8866C70.8456 39.727 70.9021 39.5907 71.0152 39.4777C71.1348 39.358 71.2778 39.2982 71.444 39.2982C71.6102 39.2982 71.7498 39.358 71.8628 39.4777C71.9825 39.5907 72.0423 39.727 72.0423 39.8866C72.0423 40.0528 71.9825 40.1957 71.8628 40.3154ZM70.3171 48.812C70.0977 48.812 69.8583 48.7821 69.599 48.7223L69.7287 47.7749C69.8617 47.8015 69.9714 47.8148 70.0578 47.8148C70.3104 47.8148 70.5165 47.7416 70.6761 47.5954C70.8423 47.4558 70.9254 47.2397 70.9254 46.9472V41.3924H71.9725V47.1666C71.9725 47.6918 71.8196 48.0973 71.5138 48.3832C71.2146 48.6691 70.8157 48.812 70.3171 48.812ZM77.3469 45.7006C76.835 46.2059 76.2167 46.4585 75.492 46.4585C74.7673 46.4585 74.149 46.2059 73.6371 45.7006C73.1252 45.1887 72.8692 44.5737 72.8692 43.8557C72.8692 43.131 73.1252 42.516 73.6371 42.0107C74.149 41.4988 74.7673 41.2428 75.492 41.2428C76.2233 41.2428 76.8449 41.4988 77.3569 42.0107C77.8688 42.516 78.1248 43.131 78.1248 43.8557C78.1248 44.5737 77.8655 45.1887 77.3469 45.7006ZM75.492 45.4712C75.9241 45.4779 76.2898 45.3249 76.589 45.0125C76.8882 44.7 77.0378 44.3177 77.0378 43.8656C77.0378 43.4069 76.8882 43.0213 76.589 42.7088C76.2898 42.3963 75.9241 42.2434 75.492 42.2501C75.0599 42.2434 74.6942 42.3963 74.395 42.7088C74.1025 43.0213 73.9562 43.4069 73.9562 43.8656C73.9562 44.3177 74.1025 44.7 74.395 45.0125C74.6942 45.3249 75.0599 45.4779 75.492 45.4712ZM78.7849 48.822L78.8846 47.8447C79.5827 47.8247 80.0381 47.5123 80.2509 46.9073L80.5002 46.3189L78.376 41.3924H79.493L81.0287 45.2917L82.5147 41.3924H83.6316L81.1883 47.2463C80.949 47.8181 80.6332 48.2237 80.2409 48.463C79.8487 48.7023 79.3633 48.822 78.7849 48.822Z" fill="#4D5A66"/>
</svg>
