<svg width="92" height="47" viewBox="0 0 92 47" fill="none" xmlns="http://www.w3.org/2000/svg">
<path opacity="0.75" d="M0 34.2303C7.36561 34.2303 13.345 28.2478 13.345 20.8783C13.345 13.5089 7.36561 7.52637 0 7.52637V13.9643V34.2303Z" fill="#F44336"/>
<path opacity="0.75" d="M6.66211 34.2303C14.0277 34.2303 20.0071 28.2478 20.0071 20.8783C20.0071 13.5089 14.0277 7.52637 6.66211 7.52637V13.9643V34.2303Z" fill="#FFA000"/>
<path d="M26.0867 13.41C25.7267 13.77 25.2967 13.95 24.7967 13.95C24.2967 13.95 23.8667 13.77 23.5067 13.41C23.1667 13.05 22.9967 12.62 22.9967 12.12C22.9967 11.64 23.1667 11.23 23.5067 10.89C23.8667 10.53 24.2967 10.35 24.7967 10.35C25.2967 10.35 25.7267 10.53 26.0867 10.89C26.4467 11.23 26.6267 11.64 26.6267 12.12C26.6267 12.62 26.4467 13.05 26.0867 13.41ZM23.2667 31.5V16.65H26.3567V31.5H23.2667Z" fill="#F77268"/>
<path d="M38.3234 31.71C36.0834 31.71 34.2634 30.94 32.8634 29.4V31.5H29.7134V9H32.8634V18.78C34.2234 17.22 36.0434 16.44 38.3234 16.44C40.3434 16.44 42.0234 17.17 43.3634 18.63C44.7234 20.09 45.4034 21.91 45.4034 24.09C45.4034 26.25 44.7234 28.06 43.3634 29.52C42.0234 30.98 40.3434 31.71 38.3234 31.71ZM37.5734 28.98C38.8934 28.98 40.0034 28.51 40.9034 27.57C41.8034 26.63 42.2534 25.47 42.2534 24.09C42.2534 22.69 41.8034 21.52 40.9034 20.58C40.0234 19.64 38.9134 19.17 37.5734 19.17C36.2334 19.17 35.1134 19.64 34.2134 20.58C33.3134 21.52 32.8634 22.69 32.8634 24.09C32.8634 25.45 33.3134 26.61 34.2134 27.57C35.1134 28.51 36.2334 28.98 37.5734 28.98ZM52.464 31.56C51.104 31.56 50.024 31.16 49.224 30.36C48.424 29.54 48.024 28.41 48.024 26.97V9H51.174V26.4C51.174 27.14 51.364 27.7 51.744 28.08C52.144 28.46 52.654 28.65 53.274 28.65C53.554 28.65 53.874 28.6 54.234 28.5L54.564 31.26C53.724 31.46 53.024 31.56 52.464 31.56ZM69.1243 29.61C67.5843 31.13 65.7243 31.89 63.5443 31.89C61.3643 31.89 59.5043 31.13 57.9643 29.61C56.4243 28.07 55.6543 26.22 55.6543 24.06C55.6543 21.88 56.4243 20.03 57.9643 18.51C59.5043 16.97 61.3643 16.2 63.5443 16.2C65.7443 16.2 67.6143 16.97 69.1543 18.51C70.6943 20.03 71.4643 21.88 71.4643 24.06C71.4643 26.22 70.6843 28.07 69.1243 29.61ZM63.5443 28.92C64.8443 28.94 65.9443 28.48 66.8443 27.54C67.7443 26.6 68.1943 25.45 68.1943 24.09C68.1943 22.71 67.7443 21.55 66.8443 20.61C65.9443 19.67 64.8443 19.21 63.5443 19.23C62.2443 19.21 61.1443 19.67 60.2443 20.61C59.3643 21.55 58.9243 22.71 58.9243 24.09C58.9243 25.45 59.3643 26.6 60.2443 27.54C61.1443 28.48 62.2443 28.94 63.5443 28.92ZM80.9061 39C79.3461 39.02 77.9161 38.7 76.6161 38.04C75.3361 37.38 74.3161 36.5 73.5561 35.4L75.8361 33.42C77.0961 35.16 78.7961 36.03 80.9361 36.03C82.2761 36.03 83.4461 35.58 84.4461 34.68C85.4461 33.78 85.9461 32.51 85.9461 30.87V29.4C84.7261 30.94 82.9361 31.71 80.5761 31.71C78.5161 31.71 76.7961 30.98 75.4161 29.52C74.0561 28.06 73.3761 26.25 73.3761 24.09C73.3761 21.91 74.0561 20.09 75.4161 18.63C76.7961 17.17 78.5161 16.44 80.5761 16.44C82.8361 16.44 84.6261 17.21 85.9461 18.75V16.65H89.0961V30.69C89.0961 33.35 88.3061 35.39 86.7261 36.81C85.1461 38.25 83.2061 38.98 80.9061 39ZM81.2061 28.98C82.5461 28.98 83.6661 28.51 84.5661 27.57C85.4861 26.61 85.9461 25.45 85.9461 24.09C85.9461 22.69 85.4861 21.52 84.5661 20.58C83.6661 19.64 82.5461 19.17 81.2061 19.17C79.8861 19.17 78.7761 19.64 77.8761 20.58C76.9961 21.52 76.5561 22.69 76.5561 24.09C76.5561 25.47 76.9961 26.63 77.8761 27.57C78.7761 28.51 79.8861 28.98 81.2061 28.98Z" fill="#FC9419"/>
</svg>
